<svg xmlns="http://www.w3.org/2000/svg" width="2048" height="806" fill="none">
  <g clip-path="url(#a)">
    <path
      fill="#49494B"
      d="m-1.7 142.2 15.1-2.3V31.2l-15-2.7V15.8h61.3v12.7l-15.4 2.7v109l15.4 2.7v12H-1.7v-12.7ZM73.4 142.2l12.1-1.7V19.1l-13.4-2.3V5.7L109 1h.3l5.4 4v135.2l12.4 1.7v12h-54v-12l.3.3ZM183.8 142.2l15.8-2.3 12.7-109-18.4-2.7V15.4h60.3L278 96.3l3.4 17.7 3-17.7 20.1-80.9h61v12.8l-19.7 2.7 16.1 108.6 15.4 2.4v12H315v-12l15.5-2.4L321 59l-3.7-33.5-5.4 25.8-25.1 97.3h-22.5L234.8 58l-8-33.2-2.4 33.9-6 80.5 18.4 2.3v12.1H183v-12l.7.6ZM382.7 103c0-8.4 1.3-15.5 3.7-22.2A46 46 0 0 1 412.9 54c6.4-2.4 13-3.7 20.8-3.7 13 0 22.8 3 29.5 9 6.7 6.1 10.4 14.8 10.7 25.9v10c0 2.7-.6 5.4-1 7.8h-59a64 64 0 0 0 2.7 15 31 31 0 0 0 5.7 10.5c2.3 2.6 5 4.7 8.4 6 3 1.3 6.7 2 10.4 2 2.3 0 5 0 7.3-.7 2.7-.3 5-1 7.4-2 2.4-.6 4.4-1.7 6.4-2.3 2-1 3.7-1.7 5-2.7l5.4 11.4s-3.7 3.3-6.4 5c-2.7 1.7-6 3.4-9.4 4.7-3.7 1.4-7.4 2.7-11.4 3.7a63 63 0 0 1-35.2-2.3c-6.4-2.7-11.4-6-15.4-10.8-4-4.7-7-10-9-16.4-2.1-6.4-2.8-13.4-2.8-20.8l-.3-.3Zm62-12.4v-6.8c0-3 0-5.7-.6-8.3-.7-2.7-1.4-4.7-2.4-6.4-1-1.7-2.7-3.4-4.3-4.4-2-1-4-1.6-7-1.6-2.4 0-4.8.3-6.8 1-2 .6-3.7 2-5.4 4-1.3 2-2.6 4.7-3.6 8.4-1 3.3-1.4 8-1.7 13.7h31.5l.3.4ZM487.7 142.9l12-1.7v-68l-11-3.8V55l30.5-4h.3l5.4 4v19.8c.3-1 1-2.7 2-4.4 1-1.6 2-3.3 3.4-5 1.3-1.7 3-3.4 5-5.4 2-1.6 4-3.3 6.4-4.7 2.3-1.3 4.7-2.6 7.4-3.3a25 25 0 0 1 8.7-1.4c1.7 0 3 0 4.3.4 1.4 0 2.4.6 3 1v31.8c-2-1.6-4-3-6.3-3.6a21 21 0 0 0-8.4-1.4c-4.7 0-9 .7-12.7 1.7a39.3 39.3 0 0 0-8.4 4V141l21.4 1.6V154h-63v-11.7.7ZM575.6 104c0-8 1.3-15.1 3.6-21.8a48 48 0 0 1 27.5-27.9 59 59 0 0 1 22.2-4c4 0 7.7 0 10.7.7 3.4.6 6 1 8.7 1.7 2.7.6 4.7 1.3 6.7 2 2 .6 3.7 1 5.4 1.3L659.1 87h-18.5L636 68.4c-.6-1.7-2-3-3.7-3.7-1.6-.6-3.6-1-6-1-2.7 0-5.4.7-7.7 1.7a14 14 0 0 0-6 5.7c-1.7 2.7-3 6-4 10.4a74 74 0 0 0-1.4 16.1c0 6.7.7 12.4 1.7 17.1 1.3 4.7 2.6 8.7 5 12 2 3.1 4.7 5.4 7.7 7.1 3 1.7 6 2.4 9.7 2.4 2.7 0 5.4 0 8-.7 2.4-.3 4.8-1 6.8-1.7 2-.6 4-1.3 5.7-2.3 1.7-.7 3.3-1.7 4.7-2.7l5 10.7s-3 3-5.3 4.7c-2.4 1.7-5 3.4-8.4 4.7a50.3 50.3 0 0 1-23.1 5c-8.5 0-15.8-1.3-21.9-3.6a41.2 41.2 0 0 1-23.8-26.9c-2-6-2.7-12.7-3-20.1l-.3.7ZM671.1 123c0-6 1.4-11 4.4-15.3 3-4.4 7-8 12-10.8a61 61 0 0 1 19.2-6.3c7.4-1.4 15.8-2 24.8-2v-3c0-2.8 0-4.8-.6-6.8-.4-2-1.4-3.3-2.7-4.7a10.1 10.1 0 0 0-5.7-2.7c-2.4-.6-5.4-1-9.4-1-3.7 0-6.7 0-10 .7-3.1.3-6.1 1-8.8 1.3a220.8 220.8 0 0 0-13.4 4l-6-11 6-4c3-1.7 6.3-3.4 10.4-4.7a77.6 77.6 0 0 1 47.3-3.7c5 1.3 8.7 3.3 11.7 6.4 3 3 5 6.7 6.4 11 1.3 4.7 2 10 2 16.8v53.3h10v11.8l-4.6 1c-2 0-4 .6-6 1-2.4.3-4.4.7-6.8.7H745c-2.3 0-4.3 0-5.7-.4-1.6 0-2.6-.7-3.7-1.7-1-.6-1.6-2-2-3.3a21 21 0 0 1-.6-5.4v-2.7s-2.7 3-4.7 4.4c-2 1.7-4 3-6.4 4.4-2.4 1.3-5.4 2.3-8.4 3.3s-6.4 1.4-10 1.4a35 35 0 0 1-12.1-2c-4-1.4-7.4-3.4-10-6.1a29 29 0 0 1-7.1-9.7c-1.7-4-2.7-8.4-2.7-13.4l-.4-.7Zm31.6-3.3c0 5.7 1.3 10.1 4 13.1s6 4.4 10.4 4.4c1 0 2.3 0 3.4-.4 1.3 0 2.6-.6 4-1 1.3-.6 2.7-1 3.7-2 1.3-.6 2.3-1.7 3.3-2.3V101a53 53 0 0 0-13.7 1.6c-3.7 1-6.7 2.7-9 4.4a13.5 13.5 0 0 0-4.8 6c-1 2.4-1.3 4.7-1.3 7v-.3ZM787.5 66h-11V55.4s1-.3 2.3-1c1-.3 2.4-1 3.4-1.6 1.3-.7 2.3-1 3.3-1.7 1-.4 1.7-.7 1.7-1 1-1 2-2.4 3-3.7 1-1.4 2-3.4 2.7-5.4.7-1.3 1-2.7 1.7-4.3.6-1.7 1.3-3.4 1.7-5a33 33 0 0 0 1.6-5.4c.7-1.7 1-3.4 1.4-5H816l.7 29.1h27.5v15.4h-27.1V126.1c0 2.7.6 5 1 6.4.6 1.3 1.3 2.3 2.6 2.7 1.4.3 2.7.6 5 .6 3 0 6.4 0 9.5-1 3-.6 5.7-1 7.7-1.6l4 11s-3.7 2.7-6.4 3.7a74.1 74.1 0 0 1-29.2 6.7c-8.3 0-14.4-1.7-18.4-5.3-4-3.7-6-9.4-6-17.2v-66h.6ZM855 142.2l12-1.7v-70l-12.4-3.8v-14l36-4.7h.2l5.7 4v88.5l11.8 1.7v12h-53.7v-12h.4ZM873.7 33c-2-.7-3.7-1.7-5-3-1.3-1.4-2.3-3-3.4-4.8-1-1.6-1-3.6-1-6 0-2.3.4-4.7 1-7 .7-2.4 2-4 3.4-5.7 1.3-1.7 3.4-3 5.4-4a18 18 0 0 1 7.4-1.4c2.6 0 5 .3 7 1.3 2 .7 3.7 2 5 3.4 1.4 1.3 2.4 3 3.4 5s1 3.7 1 6c0 2.4-.4 4.8-1 7.1-.7 2-2 4-3.4 5.7-1.3 1.7-3.3 3-5.7 3.7-2.3.7-5 1.3-8 1.3-2.4 0-4.4-.3-6.4-1l.3-.6ZM923.4 142.5 934 141V72.8l-11-3.7V54l32.8-4.4h.3l5 4v10.5A72 72 0 0 1 977 54a62.3 62.3 0 0 1 21.5-4.4c5.7 0 10.4.6 14.1 2.3 3.7 1.3 7 3.7 9.4 7 2.3 3.4 4 7.4 5 12.4s1.7 11.4 1.7 18.8V140l11 1.6v12.1h-50.6V142l9.7-1.7v-50c0-4.3 0-7.7-.6-10.7-.4-3-1-5.4-2.4-7.4-1-2-2.7-3.3-4.3-4-2-1-4.4-1.4-7-1.4-2 0-4.1 0-5.8.7-2 .7-3.7 1-5.3 2-1.7.7-3.4 1.7-4.7 2.7-1.4 1-2.7 2-3.7 3v65l10.7 1.8v11.7h-51.3V142l-1 .6ZM1048.8 103.3c0-8.7 1.4-16.4 4.4-23.1a44.2 44.2 0 0 1 28.2-26.2 60.7 60.7 0 0 1 41 .3 41 41 0 0 1 25 26.2 61.3 61.3 0 0 1 3.4 21.5c0 9-1.4 16.7-4.4 23.4a45 45 0 0 1-28.2 26.2 65.9 65.9 0 0 1-40.9-.7 41.1 41.1 0 0 1-25.1-26.1 61.6 61.6 0 0 1-3.4-21.5Zm51.3 38.2c6.4 0 11.1-3 14.1-9s4.4-15.4 4.4-28.5c0-6.7-.3-12.4-1-17.5-.7-5-1.7-9.4-3.4-12.7a20 20 0 0 0-5.7-7.7 15 15 0 0 0-8.7-2.7c-6.4 0-11 3-14 9-3.1 6-4.8 15.5-4.8 28.6 0 6.7.3 12.4 1 17.4.7 5 2 9.4 3.4 12.7 1.7 3.4 3.7 6 6 7.8a15 15 0 0 0 8.7 2.6ZM1255.8 154.6c-5.7 0-10.8-1-15.8-3s-9-5-12.7-9c-3.7-4-6.8-9.1-8.8-15.5-2-6.4-3.3-13.7-3.3-22.1 0-7.4 1.3-14.4 3.7-20.8A49 49 0 0 1 1247 55a60.8 60.8 0 0 1 30.2-4c2 0 4 .6 5.7 1V22l-17.4-2.3v-12l40.2-4.1h.7l5.7 4.3v132.2h9.7v11.4s-3 .7-5 .7-4 .6-6 1c-2 0-4.4.6-6.4.6h-6.4c-2 0-4 0-5.3-.3-1.7 0-2.7-.7-3.7-1.3-1-.7-1.7-1.7-2.4-3-.6-1.4-.6-3-.6-5v-3.8c-1.7 2-3.4 3.7-5.8 5.4-2 1.7-4.3 3-7 4.4-2.7 1.3-5.4 2-8.4 3-3 .6-6 1-9 1v.3Zm11-16c2 0 3.7 0 5.4-.8 1.7-.3 3-1 4.4-1.6l3.3-2c1-.7 2-1.7 2.7-2.4V68.1s-2.3-2.7-4.7-3.7a22.2 22.2 0 0 0-16.8.7 20 20 0 0 0-7.4 6.7c-2 3-3.6 7-5 12-1.3 5-2 11.1-2 18.5 0 6.4 0 11.7 1.3 16.4 1 4.7 2.4 8.4 4.4 11.4 1.7 3 4 5 6.4 6.4 2.3 1.3 5.4 2 8 2ZM1332.6 103c0-8.4 1.3-15.5 3.7-22.2a45.8 45.8 0 0 1 26.5-26.8c6.3-2.4 13-3.7 20.8-3.7 13 0 22.8 3 29.5 9 6.7 6.1 10.4 14.8 10.7 25.9v10c0 2.7-.7 5.4-1 7.8h-59c.3 5.7 1.3 10.7 2.7 15a31 31 0 0 0 5.7 10.5c2.3 2.6 5 4.7 8.3 6 3 1.3 6.8 2 10.4 2 2.4 0 5 0 7.4-.7 2.7-.3 5-1 7.4-2 2.3-1 4.4-1.7 6.4-2.3 2-1 3.7-1.7 5-2.7l5.4 11.4s-3.7 3.3-6.4 5c-2.7 1.7-6 3.4-9.4 4.7-3.7 1.4-7.4 2.7-11.4 3.7a63 63 0 0 1-35.2-2.3 40 40 0 0 1-15.4-10.8c-4-4.7-7-10-9.1-16.4-2-6.4-2.7-13.4-2.7-20.8l-.3-.3Zm61.7-12.4v-6.8c0-3 0-5.7-.7-8.3-.3-2.4-1.3-4.7-2.3-6.4-1-1.7-2.7-3.4-4.4-4.4-2-1-4-1.6-7-1.6-2.4 0-4.7.3-6.7 1-2 .6-3.7 2-5.4 4-1.7 2-2.7 4.7-3.7 8.4-1 3.3-1.3 8-1.7 13.7h31.6l.3.4ZM1435.2 142.2l12-1.7V19.1l-13.3-2.3V5.7l36.9-4.7h.3l5.4 4v135.2l12.4 1.7v12h-54v-12l.3.3ZM1553 142.2l14-2.3V31.2l-14-2.7V15.8h62.3v12.7l-17.4 2.7v107.7h35.9l12-36.3 17.2 2.7-5.4 49.3h-105v-12l.3-.4ZM1672.7 142.2l12-1.7v-70l-12.4-3.8v-14l36-4.7h.3l5.7 4v88.5l11.7 1.7v12h-53.7v-12h.4ZM1691 33c-2-.7-3.7-1.7-5-3a24 24 0 0 1-3.4-4.8c-.6-2-1-3.6-1-6 0-2.3.4-4.7 1-7 .7-2.4 2-4 3.4-5.7a16 16 0 0 1 5.4-4 18 18 0 0 1 7.3-1.4c2.7 0 5 .3 7 1.3 2.1.7 3.8 2 5.1 3.4 1.4 1.3 2.4 3 3.4 5 .6 2 1 3.7 1 6 0 2.4-.4 4.8-1 7.1-.7 2.4-2 4-3.4 5.7a13 13 0 0 1-5.7 3.7c-2.3 1-5 1.3-8 1.3-2.4 0-4.4-.3-6.4-1l.3-.6ZM1744.8 21.5l-13.4-2.4V8.4l36.2-4.4h.3l6 3.7v54s3-2.7 5.1-4c2-1.4 4-2.4 6.4-3.7a19 19 0 0 1 7.4-2.4c2.6-.6 5.3-1 8.3-1 5.4 0 10.8 1 15.5 2.7 5 1.7 9 4.7 12.7 8.7 3.7 4 6.7 9.1 8.7 15.1a72.2 72.2 0 0 1-.3 44.3 55.1 55.1 0 0 1-11 17.5c-4.8 5-10.8 8.7-17.5 11.7a65 65 0 0 1-23.5 4.4c-6 0-11 0-15.8-1l-12.4-2a36.6 36.6 0 0 1-12.4-4.4V21.5h-.3Zm29.2 117.4s2 2.3 4.3 3c2.4.6 5 1 8 1 3.4 0 6.5-1 9.5-2.7 2.7-1.7 5.3-4.4 7.4-7.7 2-3.4 3.6-7.7 4.6-12.8a91.2 91.2 0 0 0 .4-33.5 36 36 0 0 0-4-10.7c-1.7-2.7-4-5-6.4-6.4-2.7-1.4-5.4-2-8.4-2a13 13 0 0 0-5 .6c-1.7.4-3 1-4.4 1.7-1.3.7-2.3 1.7-3.3 2.4-1 1-2 1.6-2.7 2.7v64.3ZM1855.5 142.9l12-1.7v-68l-11-3.8V55l30.5-4h.3l5.4 4v19.8c.3-1 1-2.7 2-4.4 1-1.6 2-3.3 3.4-5 1.3-1.7 3-3.4 5-5.4 2-1.6 4-3.3 6.4-4.7a29.5 29.5 0 0 1 16-4.7c1.8 0 3.1 0 4.4.4 1.4 0 2.4.6 3 1v31.8c-2-1.6-4-3-6.3-3.6a21 21 0 0 0-8.4-1.4c-4.7 0-9 .7-12.7 1.7a39.3 39.3 0 0 0-8.4 4V141l21.4 1.6V154h-63v-11.7.7ZM1942.3 103.3c0-8.7 1.4-16.4 4.4-23.1A44 44 0 0 1 1975 54a60.8 60.8 0 0 1 41 .3 41.2 41.2 0 0 1 25 26.2 61.3 61.3 0 0 1 3.4 21.5c0 9-1.3 16.7-4.3 23.4-3 6.7-6.8 12.1-11.5 16.5a49 49 0 0 1-16.7 9.7 65.9 65.9 0 0 1-41-.7 41.1 41.1 0 0 1-25-26.1 61.3 61.3 0 0 1-3.5-21.5Zm51.4 38.2c6.3 0 10.7-3 13.7-9s4.4-15.4 4.4-28.5c0-6.7-.3-12.4-1-17.5-.7-5-1.7-9.4-3.4-12.7-1.7-3.4-3.3-6-5.7-7.7a15 15 0 0 0-8.7-2.7c-6.4 0-11 3-14 9-3.1 6-4.8 15.5-4.8 28.6 0 6.7.3 12.4 1 17.4.7 5 2 9.4 3.4 12.7 1.7 3.4 3.7 6 6 7.8a15 15 0 0 0 8.7 2.6h.4Z"
    />
    <path
      fill="#ADD3D5"
      d="M39.2 195.5H-1.7v450.2h41V195.5ZM325.7 195.5h-41v450.2h41V195.5ZM591.7 195.5h-20.5v450.2h20.5V195.5ZM734.9 195.5h-41v450.2h41V195.5ZM1042.1 195.5h-81.8v450.2h81.8V195.5ZM1267.2 195.5h-61.4v450.2h61.4V195.5ZM1860.2 195.5h-61.4v450.2h61.4V195.5Z"
    />
    <path
      fill="#1F7472"
      d="M407.5 195.5h-40.9v450.2h41V195.5ZM653 195.5h-20.4v450.2H653V195.5ZM919 195.5h-40.9v450.2h41V195.5ZM1164.9 195.5H1083v450.2h81.9V195.5ZM243.8 195.5h-61.3v450.2h61.3V195.5ZM1962.5 195.5H1901v450.2h61.4V195.5ZM1696.5 195.5h-61.4v450.2h61.4V195.5Z"
    />
    <path
      fill="#E2A615"
      d="M530.3 195.5h-81.9v450.2h81.9V195.5ZM837.2 195.5h-61.4v450.2h61.4V195.5ZM1349 195.5h-41v450.2h41V195.5ZM1511.2 198.6l-138.6 428.3 58.4 18.9 138.6-428.3-58.4-18.9ZM141.5 195.5H80.2v450.2h61.3V195.5ZM2044.3 195.5h-40.9v450.2h41V195.5ZM1757.9 195.5h-20.5v450.2h20.5V195.5ZM1574.5 191.5 1492.8 634l60.4 11.2 81.6-442.7-60.3-11.1Z"
    />
    <path
      fill="#49494B"
      d="m493.4 777.1 9.7-1.3 8.4-69.4-11.7-1.4v-6h30.1l17.5 51 3 12.7 2.3-12.7 15.5-51h30.2v6l-12.4 1.4 10.7 69.4 10 1.3v6H574v-6l9.7-1.3-7-50.3-2.4-22.2-3.7 15.1-18 61h-7.1l-20.2-54.6-6-21.5-1.7 22.2-4.3 50.3 11 1.3v6h-30.1v-6h-.7ZM724.8 751.6a34.2 34.2 0 0 1 9.4-23.4c2.7-2.7 6-4.7 9.7-6 3.7-1.4 7.4-2 11.1-2 5 0 9.4.6 13 2.3a23.7 23.7 0 0 1 14 16.8c1.2 4 1.8 8 1.8 12.3 0 5-1 9.8-2.6 13.8-1.7 4-4 7.4-6.7 10-2.7 2.7-6 4.8-9.8 6.1-3.7 1.3-7.4 2-11 2a26.6 26.6 0 0 1-21.8-9c-2.4-2.7-4-6-5-10.1-1-3.7-1.8-8-1.8-12.4l-.3-.4Zm29.5 24.9c10.4 0 15.5-8 15.5-23.8 0-3.7 0-7-.7-10.1-.7-3-1.4-5.7-2.7-8-1.3-2.4-2.7-4-4.7-5.4-2-1.4-4.4-2-7-2-5 0-9 2-11.4 6-2.7 4-4 9.7-4 17.8 0 3.7 0 7 1 10 .6 3 1.3 5.7 2.6 8 1.4 2.4 2.7 4.1 4.7 5.5 2 1.3 4.4 2 7 2h-.3ZM931.4 783.2a29 29 0 0 1-9.4-1.7c-3-1.3-5.7-3-7.7-5.4-2.3-2.3-4-5.7-5.3-9.4a40.3 40.3 0 0 1 .3-26.5c1.3-4 3.7-7.7 6.4-10.4 2.6-3 6.3-5.3 10.4-7 4-1.7 8.7-2.7 13.7-2.7h5.4c1.7 0 3.3.4 4.7.7V700l-11.1-1v-5.4l20.8-2.3 2.7 2V775h6.7v5.7s-3.4.7-5.4 1.4c-2 .3-4.3.6-6.7.6h-2.7c-.6 0-1.3-.3-2-.6-.6-.4-1-1-1-1.7s-.3-1.7-.3-3v-3s-2 2-3.4 3a19 19 0 0 1-4.3 2.7l-5.4 2c-2 .6-4 .6-6 .6l-.4.4Zm5-7.7s3 0 4.4-.7c1.4-.3 2.7-1 3.7-1.7l3-2c1-.7 1.7-1.3 2-2v-39.3s-.6-1-1.3-1.3l-2.4-1c-1 0-2-.7-3.3-.7h-3.7a15.6 15.6 0 0 0-12.7 5.7 24 24 0 0 0-4 7.7 51.7 51.7 0 0 0-.7 22.5c.6 3 2 5.4 3.3 7.4 1.4 2 3.4 3.3 5 4.4 2 1 4 1.3 6.4 1.3l.4-.3ZM1090.8 751.6a33.7 33.7 0 0 1 8.3-23.1 28.8 28.8 0 0 1 21.5-8.7c7 0 12.7 1.7 16.4 5.3 4 3.4 6 8.8 6.4 15.5v5.7c0 1.7 0 3-.7 4.3h-38.5c0 4.4.6 7.8 1.6 10.8 1 3 2.4 5.3 4 7.4a17.6 17.6 0 0 0 13 5.7c1.8 0 3.5 0 4.8-.4a11 11 0 0 0 4.7-1.3 30 30 0 0 0 7.4-3.7l2.4 5.4s-2.4 2-4 3c-1.7 1-3.4 2-5.4 2.7l-6.4 2c-2.3.6-4.7.6-7 .6a28.3 28.3 0 0 1-21.5-8.7c-2.4-2.7-4-6-5.4-10-1-4-1.7-8-1.7-12.8v.3Zm39.2-7.3v-4c0-1.7 0-3.7-.7-5-.6-1.4-1-3.1-2-4.4-1-1.4-2-2.4-3.7-3-1.7-.7-3.3-1-5.7-1-2 0-3.7 0-5.4.6a12.7 12.7 0 0 0-7.3 8.4c-.7 2.3-1.4 5-1.4 8.4h26.2ZM1267.2 777.5l7.3-1v-45l-8-2v-7l16.4-2.4 2.7 2v7.4s2.7-2.3 4.4-3.3l5.7-3c2-1 4-1.7 6.3-2.4 2.4-.7 4.4-.7 6.4-.7 3.7 0 6.7.4 9 1.4 2.4 1 4.4 2.6 5.8 4.7 1.3 2 2.3 4.6 3 8 .7 3.4.7 7 .7 11.7v30.9l8 1v5.7h-27.8v-5.7l7-1v-30.5c0-3 0-5.4-.3-7.7 0-2-.7-4-1.7-5.4-.6-1.3-2-2.4-3.3-3-1.4-.7-3.4-1-5.7-1-1.4 0-2.7 0-4.4.6-1.3.4-3 .7-4.4 1.4l-4 2a12 12 0 0 0-3.3 2.3v41.6l7.7 1v5.7h-27.5v-6.3ZM1456 765c0-4 1-7 3-9.7 2-2.6 5-5 8.4-6.7 3.4-1.6 7.4-3 11.8-3.7 4.3-.6 9-1.3 13.7-1.3v-2.4c0-2 0-4-.7-5.3-.3-1.7-1-2.7-2-3.7a8 8 0 0 0-3.7-2c-1.7-.4-3.7-.7-6-.7-2 0-4 0-6 .3-2 0-3.7.7-5.4 1-1.7.4-3.4 1-4.7 1.4-1.4.7-2.7 1-3.7 1.3l-2.7-5s1.7-1.3 3.7-2.3a51.8 51.8 0 0 1 22.1-6.4c4 0 7.4.3 10.1 1 2.7.7 5 2 6.7 3.7 1.7 1.7 3 4 3.7 6.7.7 2.7 1 6 1 9.7v34.6h6.7v5.3l-2.7.7c-1 0-2 .3-3 .7-1 .3-2.3.3-3.3.6h-6.1c-.6 0-1.3-.3-1.7-.6l-1-1.7v-5.7l-2.6 2.3c-1 1-2.7 2-4 2.7a26.1 26.1 0 0 1-11.8 3.4c-2.7 0-5-.4-7.4-1-2.3-.7-4.3-1.7-6-3.4-1.7-1.3-3-3.3-4-5.7-1-2.3-1.7-5-1.7-8h-.7Zm14-1.3c0 2 0 3.7.8 5 .6 1.4 1.3 2.7 2.3 3.4 1 1 2 1.7 3.4 2 1.3.4 2.7.7 4.3.7 1 0 1.7 0 3-.3 1 0 2.4-.7 3.4-1 1-.4 2.3-1 3.3-1.7l3-2V750c-4.3 0-8 .3-10.7 1a17 17 0 0 0-7 3 9.8 9.8 0 0 0-4 4.4 14 14 0 0 0-1.4 5.3h-.3ZM407.5 738.2H-1.7v10.4h409.2v-10.4ZM2044.3 738.2h-446v10.4h446v-10.4Z"
    />
  </g>
  <defs>
    <clipPath id="a"><path fill="#fff" d="M1 1h2046v805H1z" /></clipPath>
  </defs>
</svg>
