<svg xmlns="http://www.w3.org/2000/svg" width="256" height="256"><path fill="#1976D2" fill-opacity=".016" fill-rule="evenodd" d="M0 128.004v128.004l128.25-.254 128.25-.254.254-127.75L257.008 0H0zm.485.496c0 70.4.119 99.053.265 63.672s.146-92.98 0-128S.485 58.1.485 128.5"/><path fill="#1976D2" fill-opacity=".462" fill-rule="evenodd" d="M131.673 16.75c-.244.413-.763 3.112-1.153 6-.406 3.017-1.217 5.25-1.905 5.25-.659 0-7.222-2.02-14.584-4.49-7.362-2.469-13.5-4.375-13.639-4.235C100.087 19.58 32 229.852 32 230.489c0 .899 28.431 9.475 29.025 8.756.337-.41 15.336-46.42 33.329-102.245S127.506 34.6 128.04 33.5l.971-2-.465 2C127.283 38.942 92 231.492 92 232.946c0 1.377 2.604 2.174 14.219 4.351 7.821 1.465 14.512 2.335 14.868 1.934.357-.402 9.289-47.756 19.848-105.231 10.56-57.475 19.579-105.85 20.042-107.5.471-1.678.882 44.698.933 105.25L162 240h30V18h-15c-12.667 0-15 .233-15 1.5 0 1.955-.362 1.933-16.096-.99-7.372-1.37-13.49-2.495-13.595-2.5-.105-.006-.391.327-.636.74"/><path fill="#1976D2" fill-opacity=".126" fill-rule="evenodd" d="M131.632 19.75c-7.678 40.058-39.402 213.813-39.094 214.121.722.722 27.576 5.348 28.087 4.838.282-.282 9.24-47.92 19.907-105.861s19.624-106.58 19.904-108.086c.58-3.117 1.765-2.655-14.737-5.742-13.62-2.547-13.437-2.557-14.067.73m-64.94 104.5c-18.539 57.338-33.704 104.762-33.7 105.388.006.834 26.747 10.449 27.65 9.942.234-.132 67.611-209.005 67.739-209.998.104-.8-24.138-9.374-26.931-9.525-.578-.031-16.219 46.855-34.758 104.193"/><path fill="#1976D2" fill-opacity=".313" fill-rule="evenodd" d="M66.582 125.015c-18.654 57.741-33.729 105.163-33.5 105.383.784.752 27.009 8.844 27.399 8.455.336-.336 67.407-207.055 67.852-209.128.134-.623-25.519-9.726-27.333-9.7-.275.004-15.763 47.25-34.418 104.99"/></svg>