<svg xmlns="http://www.w3.org/2000/svg">
  <symbol id="facebook" viewBox="0 0 500 500">
    <path d="m500,250C500,111.93,388.07,0,250,0S0,111.93,0,250c0,117.24,80.72,215.62,189.61,242.64v-166.24h-51.55v-76.4h51.55v-32.92c0-85.09,38.51-124.53,122.05-124.53,15.84,0,43.17,3.11,54.35,6.21v69.25c-5.9-.62-16.15-.93-28.88-.93-40.99,0-56.83,15.53-56.83,55.9v27.02h81.66l-14.03,76.4h-67.63v171.77c123.77-14.95,219.7-120.35,219.7-248.17Z" />
    <path fill="none" d="m347.92,326.4l14.03-76.4h-81.66v-27.02c0-40.37,15.84-55.9,56.83-55.9,12.73,0,22.98.31,28.88.93v-69.25c-11.18-3.11-38.51-6.21-54.35-6.21-83.54,0-122.05,39.44-122.05,124.53v32.92h-51.55v76.4h51.55v166.24c19.34,4.8,39.57,7.36,60.39,7.36,10.25,0,20.36-.63,30.29-1.83v-171.77h67.64Z" />
  </symbol>
  <symbol id="instagram" viewBox="0 0 512 512">
    <path d="M96.1,23.2c-16.2,6.3-29.9,14.7-43.6,28.4C38.8,65.2,30.4,79,24.1,95.1c-6.1,15.6-10.2,33.5-11.4,59.7    c-1.2,26.2-1.5,34.6-1.5,101.4s0.3,75.2,1.5,101.4c1.2,26.2,5.4,44.1,11.4,59.7c6.3,16.2,14.7,29.9,28.4,43.6    c13.7,13.7,27.4,22.1,43.6,28.4c15.6,6.1,33.5,10.2,59.7,11.4c26.2,1.2,34.6,1.5,101.4,1.5c66.8,0,75.2-0.3,101.4-1.5    c26.2-1.2,44.1-5.4,59.7-11.4c16.2-6.3,29.9-14.7,43.6-28.4c13.7-13.7,22.1-27.4,28.4-43.6c6.1-15.6,10.2-33.5,11.4-59.7    c1.2-26.2,1.5-34.6,1.5-101.4s-0.3-75.2-1.5-101.4c-1.2-26.2-5.4-44.1-11.4-59.7C484,79,475.6,65.2,462,51.6    c-13.7-13.7-27.4-22.1-43.6-28.4c-15.6-6.1-33.5-10.2-59.7-11.4c-26.2-1.2-34.6-1.5-101.4-1.5s-75.2,0.3-101.4,1.5    C129.6,12.9,111.7,17.1,96.1,23.2z M356.6,56c24,1.1,37,5.1,45.7,8.5c11.5,4.5,19.7,9.8,28.3,18.4c8.6,8.6,13.9,16.8,18.4,28.3    c3.4,8.7,7.4,21.7,8.5,45.7c1.2,25.9,1.4,33.7,1.4,99.4s-0.3,73.5-1.4,99.4c-1.1,24-5.1,37-8.5,45.7c-4.5,11.5-9.8,19.7-18.4,28.3    c-8.6,8.6-16.8,13.9-28.3,18.4c-8.7,3.4-21.7,7.4-45.7,8.5c-25.9,1.2-33.7,1.4-99.4,1.4s-73.5-0.3-99.4-1.4    c-24-1.1-37-5.1-45.7-8.5c-11.5-4.5-19.7-9.8-28.3-18.4c-8.6-8.6-13.9-16.8-18.4-28.3c-3.4-8.7-7.4-21.7-8.5-45.7    c-1.2-25.9-1.4-33.7-1.4-99.4s0.3-73.5,1.4-99.4c1.1-24,5.1-37,8.5-45.7c4.5-11.5,9.8-19.7,18.4-28.3c8.6-8.6,16.8-13.9,28.3-18.4    c8.7-3.4,21.7-7.4,45.7-8.5c25.9-1.2,33.7-1.4,99.4-1.4S330.7,54.8,356.6,56z"/>
    <path d="M130.9,256.3c0,69.8,56.6,126.3,126.3,126.3s126.3-56.6,126.3-126.3S327,130,257.2,130    S130.9,186.5,130.9,256.3z M339.2,256.3c0,45.3-36.7,82-82,82s-82-36.7-82-82c0-45.3,36.7-82,82-82S339.2,211,339.2,256.3z"/>
    <circle cx="388.6" cy="125" r="29.5"/>
  </symbol>
</svg>
