<svg xmlns="http://www.w3.org/2000/svg" width="2048" height="806" fill="none">
  <g clip-path="url(#a)">
    <path
      fill="#49494B"
      d="m43.6 770.4 9-1.3v-67.8L44 700v-6.4h32.2c5.4 0 10 .4 14.1 1.4 3.7 1 7 2.3 9.4 4 2.4 1.7 4 4 5 6.7s1.7 5.7 1.7 9.4c0 2.3 0 5-1 7.4-.7 2.3-1.7 4.7-3 6.7s-3 4-5 5.3c-2 1.7-4.4 2.7-7 3.4 1.6 1 3 2.3 4.6 4 1.4 1.7 3 4 4.4 6 1.3 2.4 2.7 4.4 4 7.1 1.3 2.4 2.3 4.7 3.7 6.7 1 2 2.3 3.7 3.3 5 1 1.4 2 2.4 3 2.4l4 1.3v5.7h-16s-1.4-.3-2.4-1.3c-.6-1-1.6-2-2.3-3.7-1-1.7-1.7-3.4-2.7-5l-2.7-6c-1-2-2-4-3-6.4l-3-5.7a57 57 0 0 0-3-4.7c-1-1.4-2-2.4-3-3H66v29.1l10.7 1.4v6H44.3v-6l-.7-.4ZM65.4 734h12c2.4 0 4.4-.4 6.1-1 1.7-.7 3.4-1.7 4.7-3.4 1.3-1.3 2.4-3.3 3-5.7.7-2.3 1-4.7 1-8 0-2.4 0-4.4-.6-6.4-.7-2-1.4-3.7-3-5a14.6 14.6 0 0 0-5.4-3.4c-2.4-1-5-1.3-8.7-1.3H65v33.5l.3.7ZM224.4 745.6c0-4.7.7-8.7 2-12.7 1.3-3.7 3.4-7 6-9.8a26 26 0 0 1 9.4-6.3c3.7-1.4 7.4-2.4 11.8-2.4 7 0 12.4 1.7 16 5 3.8 3.4 5.8 8.4 6.1 15.1v5.7c0 1.7 0 3-.7 4h-37.5c0 4 .6 7.8 1.6 10.8 1 3 2.4 5.4 4 7.4a16.5 16.5 0 0 0 12.7 5.7c1.8 0 3.1 0 4.8-.4 1.7 0 3-.6 4.7-1l4-1.6c1.4-.7 2.4-1.4 3-2l2.4 5.3s-2.4 2-4 3a35.3 35.3 0 0 1-11.7 4.4c-2.4.3-4.4.7-6.8.7-4.7 0-8.7-.7-12.4-2.4a23.5 23.5 0 0 1-13.7-16c-1-3.8-1.7-8.1-1.7-12.5Zm38.2-7.4v-4c0-1.7 0-3.7-.7-5-.3-1.7-1-3-2-4-1-1.4-2-2-3.7-2.7-1.6-.7-3.3-1-5.3-1s-3.7 0-5 .6c-1.7.7-3 1.4-4 2.7-1.4 1.4-2.4 3-3 5.4-.8 2.3-1.4 5-1.4 8.4h25.1v-.4ZM389 789.2c0-1.7 0-3.3 1-5a15.9 15.9 0 0 1 5.7-7.7c1.4-1 2.4-1.7 3.8-2.4-1.7-1-3-2-4-3.7a9.1 9.1 0 0 1-1.4-5.3c0-1.4 0-2.7.7-4 .3-1.4 1-2.4 1.6-3.8.7-1 1.7-2 2.7-3 1-1 2-1.6 3.4-2.3a18.7 18.7 0 0 1-8.4-6.7c-2-3-3-6.4-3-10.4 0-3 .7-6 2.3-8.4 1.4-2.4 3.4-4.7 5.7-6.4a31 31 0 0 1 18.1-5.4 30.1 30.1 0 0 1 18.4 5.4l1.8-1.7c.6-.6 1.6-1 2.7-1.6 1-.7 2.3-1 3.6-1.4 1.4-.3 3-.6 4.7-.6h3v10.4h-11.3s1 2.3 1.3 3.6c.3 1.4.3 2.7.3 4.4a19.6 19.6 0 0 1-7.3 15.4c-2.4 1.7-5 3.4-8.1 4.4-3 1-6.7 1.7-10 1.7-3 0-5.8 0-8.4-1-1 .6-1.7 2-2.4 3-.7 1.3-1 2.3-1 3.7 0 1.3 0 2.3.7 3.3.3 1 1.3 1.7 2.3 2 1 .4 2.4.7 3.7 1h17.1c7.4 0 12.8 1.4 16.1 4 3.4 2.8 5 6.8 5 12.1 0 2-.3 4-1.3 6-.7 2-2 3.8-3.4 5.8A31.7 31.7 0 0 1 433 803c-2.3 1-5 1.6-7.7 2.3-2.7.7-5.7.7-8.4.7a46.4 46.4 0 0 1-21.5-4.7 12 12 0 0 1-4.7-5.4c-1-2-1.3-4.3-1.3-7l-.3.3Zm12.1-3.3c0 2 .4 4 1 5.7.7 1.6 1.4 3 2.7 4 1.4 1 3 2 5 2.7 2 .6 4.8 1 7.8 1 2.3 0 4.7 0 7-.7 2.4-.7 4.4-1.3 6-2.3 2-1 3.4-2.4 4.4-4 1-1.7 1.7-3.8 1.7-5.8 0-1.6 0-3-.3-4.3-.4-1.4-1-2.4-2-3-1-.7-2.4-1.4-4-1.7-1.8-.4-4.1-.7-6.8-.7h-15.4c-1.4 0-2.7 0-4-.7a16.3 16.3 0 0 0-3.4 10.4l.3-.6Zm15.8-38.3c2 0 4 0 5.4-1 1.3-.7 2.7-1.7 3.7-2.7 1-1 1.6-2.6 2-4.3.3-1.7.6-3.7.6-5.7 0-4.7-1-8-3-10-2-2.1-5-3.1-9.4-3.1a13 13 0 0 0-5 .7c-1.7.3-2.7 1-4 2.3-1 1-2 2.4-2.7 4-.7 1.7-1 3.7-1 6 0 2 0 3.8.7 5.4.3 1.7 1 3.4 2 4.4 1 1.3 2.3 2.3 4 3 1.7.7 3.7 1 6 1h.7ZM558.8 789.2c0-1.7 0-3.3 1-5a15.9 15.9 0 0 1 5.7-7.7c1.3-1 2.3-1.7 3.7-2.4-1.7-1-3-2-4-3.7a9.1 9.1 0 0 1-1.4-5.3c0-1.4 0-2.7.7-4 .3-1.4 1-2.4 1.7-3.8.6-1 1.6-2 2.6-3s2.4-1.6 3.4-2.3a18.7 18.7 0 0 1-8.4-6.7c-2-3-3-6.4-3-10.4 0-3 .7-6 2.3-8.4 1.4-2.4 3.4-4.7 5.7-6.4a31 31 0 0 1 18.1-5.4 30.2 30.2 0 0 1 18.4 5.4l1.8-1.7c.7-.6 1.7-1 2.7-1.6 1-.7 2.3-1 3.7-1.4 1.3-.3 3-.6 4.7-.6h3v10.4h-11.4s1 2.3 1.3 3.6c.3 1.4.7 2.7.7 4.4a19.6 19.6 0 0 1-7.4 15.4c-2.3 1.7-5 3.4-8 4.4-3 1-6.4 1.7-10.1 1.7-3 0-5.7 0-8.4-1-1 .6-1.7 2-2.3 3-.7 1.3-1 2.3-1 3.7 0 1.3 0 2.3.6 3.3.4 1 1.4 1.7 2.4 2 1 .4 2.3.7 3.7 1h17.1c7.3 0 12.7 1.4 16 4 3.4 2.8 5.1 6.8 5.1 12.1 0 2-.3 4-1.3 6-.7 2-2 3.8-3.4 5.8-1.3 1.7-3 3.3-5 4.7a43 43 0 0 1-14.5 6c-2.6.7-5.7.7-8.3.7a46.4 46.4 0 0 1-21.5-4.7 12 12 0 0 1-4.7-5.4c-1-2-1.3-4.3-1.3-7l-.7.3Zm12-3.3c0 2 0 4 1 5.7a12 12 0 0 0 2.8 4c1.3 1 3 2 5 2.7 2 .6 4.7 1 7.7 1 2.3 0 4.7 0 7-.7 2.4-.7 4.4-1.3 6-2.3 2-1 3.4-2.4 4.4-4 1-1.7 1.7-3.8 1.7-5.8 0-1.6 0-3-.3-4.3-.4-1.4-1-2.4-2-3-1-.7-2.4-1.4-4-1.7-1.7-.4-4-.7-6.8-.7H578c-1.3 0-2.7 0-4-.7a16.3 16.3 0 0 0-3.4 10.4l.4-.6Zm15.5-38.3c2 0 4 0 5.4-1a15 15 0 0 0 3.6-2.7c1-1 1.7-2.6 2-4.3.4-1.7.7-3.7.7-5.7 0-4.7-1-8-3-10-2-2.1-5-3.1-9.4-3.1-2 0-3.7 0-5 .7-1.4.3-2.7 1-4 2.3a8 8 0 0 0-2.4 4c-.7 1.7-1 3.7-1 6 0 2 0 3.8.7 5.4.3 1.7 1 3.4 2 4.4 1 1.3 2.3 2.3 4 3 1.7.7 3.7 1 6 1h.4ZM744.6 770.4l8.7-1v-45.6l-8-2.3V715l17.4-2.4 2.7 2v54.4l8.7 1v6h-29.8v-6l.3.3Zm10.4-68.7s-1.7-1-2.3-1.7c-.7-.7-1-1.3-1.4-2.4 0-1-.7-2-.7-3s0-2.3.7-3.3c.3-1 1-2 1.7-2.7.7-.7 1.7-1.4 2.7-2 1-.4 2-.7 3.3-.7 0 0 2.4 0 3.4.7 1 .3 1.7 1 2.3 1.7.7.6 1 1.6 1.4 2.3.3 1 .6 1.7.6 2.7 0 1.3 0 2.3-.6 3.3 0 1-1 2-1.7 2.7-.7.7-1.7 1.4-2.7 2-1 .4-2.3.7-3.7.7 0 0-2 0-3-.7v.4ZM900.9 745.3c0-5 1-9.4 2.4-13.1 1.6-3.7 4-7 6.7-9.7a28.1 28.1 0 0 1 20-8c5.1 0 9.1.6 12.8 2.3 3.7 1.6 6.4 3.7 8.8 6.3 2.3 2.7 4 6 5 9.8 1 3.7 1.7 7.7 1.7 12 0 5-.7 9.4-2.4 13.1-1.7 3.7-4 7-6.7 9.7a25.2 25.2 0 0 1-9.4 6c-3.7 1.4-7 2.1-11 2.1-4.8 0-9.1-.7-12.8-2.3a28 28 0 0 1-8.7-6.4c-2.4-2.7-4-6-5-9.8-1-3.6-1.7-7.7-1.7-12h.3Zm28.9 24.1c10 0 15-7.7 15-23.1 0-3.7 0-7-.6-10-.7-3.1-1.4-5.8-2.7-8.1-1.4-2.4-2.7-4-4.7-5.4-2-1.3-4.4-2-7-2-5 0-8.8 2-11.5 5.7-2.6 4-3.6 9.7-3.6 17.4 0 3.7 0 7 1 10.1.6 3 1.3 5.7 2.6 8 1.4 2.4 2.7 4 4.7 5.4 2 1.4 4.4 2 7 2h-.3ZM1067 770.4l9-1.3v-67.8l-9-1.3v-6h56.6l1.7 17h-7l-3.4-10.7h-25.8v30.2h17.4l1.7-9h7v25.8h-7l-1.7-9.7h-17.8V769h29.9l6-14.1 7 2-3 19.5H1067v-6ZM1218.5 770.8l6.8-1v-44l-7.8-2v-6.7l16.1-2 2.7 2v7s2.7-2.3 4.4-3.3c1.6-1 3.7-2 5.7-3s4-1.7 6.3-2c2-.7 4-1 6-1 4.1 0 7.1.6 9.8 2 2.4 1.3 4.4 3.3 5.4 6.3 1-1 2.3-1.6 4-2.6 1.7-1 3.4-2 5.4-2.7l6-2c2-.4 4-.7 6-.7 3.7 0 6.4.3 8.8 1.3 2.3 1 4 2.4 5.3 4.7 1.4 2 2.4 4.7 2.7 7.7.7 3 .7 7 .7 11.4v30.2l7.7 1v5.7H1294v-5.7l6.4-1v-29.8c0-3 0-5.4-.4-7.7-.3-2-1-4-1.6-5.4-.7-1.3-2-2.3-3.7-3a14 14 0 0 0-6-1c-1.4 0-2.4 0-3.8.3-1.3 0-2.3.7-3.6 1.4l-3.7 1.6-3 2c.3 1.7.6 3.4.6 5.4v36.2l8 1v5.7h-27.4v-5.7l7.4-1v-30.2c0-3 0-5.3-.4-7.3 0-2-.7-4-1.7-5.4-.6-1.3-2-2.3-3.3-3-1.4-.7-3.4-1-5.7-1-1.4 0-2.7 0-4 .3-1.4 0-2.7.7-4 1.4-1.4.6-2.8 1.3-3.8 1.6a12 12 0 0 0-3.3 2.4V770l7.4 1v5.7h-26.5v-5.7l.6-.3ZM1424.2 770.4l8.7-1v-45.6l-7.8-2.3V715l17.2-2.4 2.6 2v54.4l8.8 1v6h-29.9v-6l.4.3Zm10.3-68.7s-1.6-1-2.3-1.7c-.7-.7-1-1.3-1.4-2.4 0-1-.6-2-.6-3s0-2.3.6-3.3c0-1 1-2 1.7-2.7.7-.7 1.7-1.4 2.7-2 1-.4 2.4-.7 3.4-.7 0 0 2.3 0 3 .7a6 6 0 0 1 2.3 1.7c.7.6 1 1.6 1.4 2.3.3 1 .3 1.7.3 2.7 0 1.3 0 2.3-.7 3.3-.3 1-1 2-1.6 2.7-.7.7-1.7 1.4-2.7 2-1 .4-2.4.7-3.7.7 0 0-2 0-3-.7l.6.4ZM1593.9 770.4l8.7-1v-75.8l-9-1v-5l18.4-2.4 2.7 2v82.6l9 1v6h-30.5v-6l.7-.4ZM1764 770.4l8.6-1v-45.6l-7.7-2.3V715l17.1-2.4 2.7 2v54.4l8.7 1v6h-29.8v-6l.3.3Zm10.3-68.7s-1.7-1-2.3-1.7c-.7-.7-1-1.3-1.4-2.4-.3-1-.6-2-.6-3s0-2.3.6-3.3c0-1 1-2 1.4-2.7.6-.7 1.6-1.4 2.7-2 1-.4 2.3-.7 3.3-.7 0 0 2.3 0 3.3.7a6 6 0 0 1 2.4 1.7c.7.6 1 1.6 1.3 2.3.4 1 .4 1.7.4 2.7 0 1.3 0 2.3-.4 3.3-.3 1-1 2-1.6 2.7-.7.7-1.7 1.4-2.7 2-1 .4-2.4.7-3.7.7 0 0-2 0-3-.7l.3.4ZM1921.2 758.7c0-3.7 1-7 3-9.7a22 22 0 0 1 8-6.4c3.4-1.7 7.5-3 11.8-3.7 4.4-.7 8.8-1.3 13.5-1.3v-2.4c0-2 0-4-.7-5.4 0-1.3-1-2.6-2-3.6a8 8 0 0 0-3.7-2c-1.7-.4-3.4-.7-6-.7-2 0-4 0-5.8.3-2 0-3.7.7-5.3 1-1.7.4-3 1-4.7 1.4l-3.4 1.3-2.7-5s1.7-1.4 3.4-2.4 3.7-2 6-2.7a41.7 41.7 0 0 1 15.8-3.3c4 0 7 .3 10 1 2.7.7 4.8 2 6.4 3.7 1.7 1.7 2.7 3.7 3.7 6.4.7 2.6 1 6 1 9.7v33.9h6.7v5.3s-1.7.4-2.3.7c-1 0-2 .3-3 .7l-3.4.3h-5.7c-.7 0-1.3 0-1.7-.7-.3-.3-.6-1-1-1.7v-5.7l-2.7 2.4c-1 1-2.3 1.7-4 2.7a25.8 25.8 0 0 1-11.7 3.3c-2.4 0-5-.3-7-1a16.3 16.3 0 0 1-10-8.7c-1.1-2.3-1.5-5-1.5-8l-1 .3Zm13.4-1.7c0 2 0 3.7.7 5 .7 1.4 1.4 2.7 2.4 3.4 1 1 2 1.7 3.3 2 1.3.3 2.7.7 4 .7.7 0 1.7 0 2.7-.4 1 0 2.4-.6 3.4-1 1-.3 2.3-1 3.3-1.6l3-2v-19.5c-4 0-7.7.3-10.7 1-3 .7-5.4 1.7-7 3-1.7 1.4-3 2.7-4 4.4-.7 1.7-1.4 3.3-1.4 5h.3ZM3.7 139.9l14.7-2.4v-107l-15-2.7V15.1h60.3v12.7l-15 2.4v107l15 2.7v11.7h-60v-12 .3ZM77.5 139.9l12-1.7V18.8l-13-2.4v-11L112.7 1h.3l5.4 4v133.2l12 1.7v12h-53v-12ZM186.1 139.9l15.5-2.4L214 30.2l-18.1-2.4V15.1h59.3l23.5 79.5 3.4 17.4 3-17.4L304.9 15h60v12.7l-19.4 2.7 16 107 15.2 2.4v12h-61.4v-12l15-2.4-9.3-79.1-3.4-33-5.3 25.6-24.9 95.6h-22.1l-28.8-89-8-32.4-2.1 33.2-5.7 79.1 18.1 2.4v12h-53v-12h.3ZM381.7 101.3c0-8 1.3-15.4 3.7-21.8a43.8 43.8 0 0 1 25.8-26.2 57 57 0 0 1 20.5-3.3 44 44 0 0 1 29.1 8.7c6.8 6 10.1 14.4 10.4 25.1 0 3.7 0 7-.3 10.1 0 2.7-.7 5.4-1 7.4h-58a58 58 0 0 0 2.7 14.7c1.3 4 3.3 7.4 5.7 10.1 2.3 2.7 5 4.7 8 5.7a26 26 0 0 0 10.4 1.7c2.4 0 4.7 0 7.4-.7 2.7-.3 5-1 7-1.7 2.4-.6 4.4-1.6 6.4-2.3 2-1 3.7-1.7 5-2.7l5.4 11s-3.3 3.4-6.4 5.1a49 49 0 0 1-9.4 4.7 91 91 0 0 1-11.4 3.7 61 61 0 0 1-34.5-2.3c-6.4-2.4-11.4-6-15.1-10.5-4-4.3-7-9.7-8.7-16-1.7-6.4-2.7-13.1-2.7-20.5Zm61-12v-6.8c0-3 0-5.7-.6-8a18 18 0 0 0-2.4-6.4c-1-1.7-2.7-3-4.3-4-1.7-1-4-1.4-6.8-1.4-2.3 0-4.6.3-6.3 1-2 .7-3.7 2-5.4 4-1.3 2-2.7 4.7-3.7 8.1a66 66 0 0 0-1.7 13.4h31.2ZM485 140.5l11.7-1.6V71.8L486 68V54l30.2-4h.3l5.4 4v19.4c.3-1 1-2.3 2-4 1-1.7 2-3.3 3.4-5a41.5 41.5 0 0 1 10.7-9.7c2.3-1.4 4.7-2.4 7.4-3.4s5.3-1.3 8.4-1.3c1.6 0 3 0 4 .3 1.3 0 2 .7 2.7 1v31.5c-2-1.6-4-3-6.4-3.7a25 25 0 0 0-8-1.3c-4.8 0-8.8.7-12.5 1.7a18 18 0 0 0-8 4V139l21.1 1.6V152h-62v-11.4h.3ZM571.5 102a64 64 0 0 1 3.7-21.5c2.4-6.4 6-12 10.8-16.4a49.8 49.8 0 0 1 38.2-14.5c4 0 7.4 0 10.7.7 3 .7 6 1 8.4 1.7l6.7 2c2 .7 3.7 1 5 1.3L653.7 86h-18.1l-4.7-18.2c-.7-1.6-2-3-3.7-3.6a16 16 0 0 0-13.4.3 14 14 0 0 0-6 5.7c-1.7 2.7-3 6-4 10.4s-1.4 9.4-1.4 15.8c0 6.3.3 12 1.7 16.7a29 29 0 0 0 12.4 18.8c2.7 1.7 6 2.4 9.4 2.4 2.7 0 5.3 0 7.7-.7 2.3-.3 4.7-1 6.7-1.7l5.7-2c1.7-.7 3.3-1.7 4.7-2.4l5 10.4s-3 3-5.3 4.7a62.4 62.4 0 0 1-19.2 8.4 58.6 58.6 0 0 1-33.9-2.3c-6-2.4-11-6-14.7-10.4a42 42 0 0 1-8.4-15.8c-2-6-2.7-12.7-3-19.8l.3-.6ZM665.4 121c0-5.6 1.4-10.7 4.4-15 2.7-4.4 6.7-7.7 12-10.8 5.1-2.6 11.5-5 18.9-6.3 7.3-1.4 15.4-2 24.4-2v-3c0-2.4 0-4.8-.6-6.8-.4-2-1.4-3.3-2.7-4.7a10.1 10.1 0 0 0-5.7-2.6c-2.4-.7-5.4-1-9-1-3.4 0-6.8 0-9.8.6l-8.4 1.4c-2.7.6-5 1.3-7.4 2l-6 2-5.7-10.7s3.4-2.4 6-4a70 70 0 0 1 10.1-4.8 77 77 0 0 1 46.6-3.7c4.7 1.4 8.7 3.4 11.8 6.4 3 3 5 6.4 6.3 11 1.4 4.4 2 10.1 2 16.5v52.3h9.8v11.4l-4.4 1c-2 0-4 .7-6 1-2 0-4.4.7-6.7.7-2.4 0-4.4.4-6.4.4-2.3 0-4.4 0-5.7-.4-1.7 0-2.7-.6-3.7-1.6-1-.7-1.7-2-2-3.4-.3-1.3-.7-3-.7-5v-2.7s-2.7 3-4.3 4.3a42.8 42.8 0 0 1-14.8 7.8 38 38 0 0 1-22.1-.7c-3.7-1.3-7-3.4-10-5.7-3.1-2.7-5.1-5.7-6.8-9.7a33 33 0 0 1-2.7-13.5l-.7-.6Zm31.2-3.3c0 5.7 1.4 9.7 4 12.8 2.7 3 6.1 4.3 10.1 4.3 1 0 2 0 3.4-.3a7 7 0 0 0 3.7-1.3c1.3-.4 2.7-1 3.7-1.7 1.3-.7 2.3-1.7 3.3-2.4V99c-5.4 0-9.7.7-13.4 1.7-3.7 1-6.7 2.4-8.7 4.4a13.5 13.5 0 0 0-4.7 6c-1 2.4-1.4 4.7-1.4 7v-.3ZM779.8 65h-11V54.8l2-1c1-.4 2.3-1 3.3-1.7 1.4-.7 2.4-1 3.4-1.7 1-.3 1.7-.7 1.7-1 1-1 2-2.3 3-3.7 1-1.3 1.6-3.3 2.7-5.4.6-1 1-2.6 1.6-4 .7-1.7 1.4-3.3 1.7-5 .7-1.7 1-3.4 1.7-5.4a28 28 0 0 0 1.3-5h16.5l.6 28.5h26.9v15h-26.9v59.1c0 2.7.7 4.7 1 6 .7 1.4 1.4 2.4 2.7 2.7 1 0 2.7.7 4.7.7 3 0 6 0 9.4-1 3-.7 5.7-1 7.4-1.7l3.7 11.1s-3.7 2.7-6 3.7a62.5 62.5 0 0 1-8.4 3.3c-3 1-6.4 1.7-9.8 2.4a52 52 0 0 1-10.4 1c-8 0-14-1.7-18-5.4-4.1-3.7-6.1-9-6.1-16.7V64.7l1.3.4ZM846.2 139.9l12.1-1.7V69.4l-12-3.7V52l35.2-4.7h.3l5.7 4v86.9l11.4 1.7v12h-52.7v-12Zm18.5-107.4c-2-.6-3.7-1.6-5-3-1.4-1.3-2.4-3-3.4-4.7a21.7 21.7 0 0 1 0-12.7c.7-2 2-4 3.4-5.7a12 12 0 0 1 5.3-3.7c2-1 4.7-1.4 7.4-1.4s5 .4 7 1.4c2 1 3.7 2 5 3.3a14 14 0 0 1 4.1 10.4c0 2.4-.3 4.7-1 6.7s-2 4-3.4 5.7c-1.3 1.7-3.3 3-5.7 3.7-2.3 1-5 1.4-8 1.4-2.4 0-4.4-.4-6.4-1l.7-.4ZM913.3 140.2l10.4-1.7v-67l-11-3.4V53.3l32.5-4.3h.3l5 4v10.4a42.4 42.4 0 0 1 15.4-9.7 57.4 57.4 0 0 1 20.9-4c5.7 0 10.4.6 14 2 3.8 1.3 6.8 3.6 9.1 7 2.4 3 4 7.4 5 12.4s1.7 11.4 1.7 18.4v49l10.7 1.7v11.7h-50v-11.7l9.5-1.7v-49c0-4 0-7.7-.7-10.7-.3-3-1-5.3-2.4-7-1-2-2.3-3.4-4.3-4-1.7-1-4-1.4-7-1.4-2 0-3.7 0-5.8.7-2 .3-3.6 1.3-5.3 2-1.7.7-3.4 1.7-4.7 2.7a93 93 0 0 1-3.7 2.7v64l10.4 1.7v11.7H913v-11.7h.3ZM1037 101.3c0-8.7 1.4-16.1 4.4-22.8a46.8 46.8 0 0 1 27.9-25.8 64 64 0 0 1 19.4-3.4c7.8 0 14.5 1 20.5 3.4a44 44 0 0 1 15.4 10 50 50 0 0 1 13.1 37c0 9-1.3 16.7-4.4 23A42.7 42.7 0 0 1 1122 139c-4.7 4.3-10 7.3-16.4 9.3a62.2 62.2 0 0 1-40-.3 44 44 0 0 1-15.3-10 49.9 49.9 0 0 1-13.1-37v.4Zm50.4 37.6c6 0 10.7-3 13.7-8.8 3-6 4.4-15 4.4-27.8 0-6.4 0-12-1-17.1-.7-5-1.7-9-3.4-12.4-1.3-3.4-3.3-6-5.7-7.7-2.3-1.7-5-2.7-8.7-2.7-6 0-10.7 3-13.7 9s-4.7 15.1-4.7 27.9c0 6.3.3 12 1 17 .7 5.1 1.7 9.1 3.3 12.5 1.4 3.3 3.4 6 5.7 7.7a15 15 0 0 0 8.8 2.7l.3-.3ZM1240.3 152a39.6 39.6 0 0 1-28.1-11.8 41 41 0 0 1-8.4-15.1 70 70 0 0 1 .3-42.3c2.4-6.3 5.7-12 10.4-17 4.7-5.1 10.4-8.8 17.1-11.8a58 58 0 0 1 23.8-4.4h5.7c2 0 3.7.7 5.4 1V21.1l-17.1-2.3V7.4l39.6-4h.7l5.6 4.3v130.1h9.8v11.4s-3 .7-4.7.7c-2 0-3.7.7-5.7.7s-4 .3-6.4.7h-6c-2 0-3.7 0-5.4-.4-1.7 0-2.7-.6-3.7-1.3-1-.7-1.7-1.7-2.3-3-.4-1.4-.7-3-.7-5v-3.8c-1.7 2-3.4 3.7-5.4 5.4-2 1.7-4.3 3-7 4-2.4 1.4-5.4 2-8 2.7-3 .7-5.8 1-8.8 1l-.7 1Zm11.1-15.8c2 0 3.7 0 5-.7 1.7-.3 3-1 4.4-1.3a19 19 0 0 0 6-4.4V67s-2.3-2.7-4.7-3.7c-2.3-1-5-1.4-7.7-1.4a18.5 18.5 0 0 0-15.7 8.4c-2 3-3.7 7-5 11.8a90 90 0 0 0-.7 34.2 35 35 0 0 0 4 11c1.7 3 3.7 5 6.4 6.4 2.3 1.4 5 2 8 2v.4ZM1316.1 101.3c0-8 1-15.4 3.7-21.8a43.8 43.8 0 0 1 25.9-26.2A57 57 0 0 1 1366 50a44 44 0 0 1 29.2 8.7c6.7 6 10 14.4 10.4 25.1V94c0 2.7-.7 5.4-1 7.4h-58c0 5.7 1.3 10.7 2.6 14.7 1.4 4 3.4 7.4 5.8 10.1 2.3 2.7 5 4.7 8 5.7 3 1.3 6.7 1.7 10.4 1.7 2.3 0 5 0 7.4-.7 2.3-.3 5-1 7-1.7 2.4-.6 4.4-1.6 6.4-2.3 2-1 3.7-1.7 5-2.7l5.4 11s-3.7 3.4-6.4 5.1a49.2 49.2 0 0 1-9.4 4.7 91.2 91.2 0 0 1-11.4 3.7 61 61 0 0 1-34.5-2.3c-6-2.4-11-6-15.1-10.5-4-4.3-7-9.7-8.7-16-2-6.4-2.7-13.1-2.7-20.5h-.4Zm61-12v-6.8c0-3 0-5.7-.6-8-.3-2.4-1.3-4.7-2.3-6.4-1-1.7-2.4-3-4.4-4-2-1-4-1.4-6.7-1.4-2.3 0-4.4.3-6.4 1s-3.7 2-5.3 4c-1.4 2-2.7 4.7-3.7 8.1a50 50 0 0 0-1.4 13.4h30.9ZM1416.8 139.9l12-1.7V18.8l-13-2.4v-11L1452 1h.3l5.4 4v133.2l12 1.7v12h-53v-12ZM1532.8 139.9l14.1-2.4v-107l-13.8-2.7V15.1h61.4v12.7l-17 2.7v106h35.2l11.7-35.9 16.8 2.7-5.4 48.6h-103.3v-12h.3ZM1650.5 139.9l12.1-1.7V69.4l-12-3.7V52l35.2-4.7h.3l5.7 4v86.9l11.4 1.7v12h-52.7v-12ZM1669 32.5a12.6 12.6 0 0 1-8-7.7 21.7 21.7 0 0 1 0-12.7c.6-2 1.6-4 3.3-5.7 1.3-1.7 3.4-3 5.4-3.7a18 18 0 0 1 7.3-1.4c2.7 0 5 .4 7 1.4 2.1 1 3.8 2 5.1 3.3 1.4 1.4 2.4 3 3.4 4.7.6 2 1 3.7 1 5.7 0 2.4-.4 4.7-1 6.7-.7 2-2 4-3.4 5.7a13 13 0 0 1-5.7 3.7c-2.3 1-4.7 1.4-8 1.4-2.4 0-4.4-.4-6.4-1v-.4ZM1721.7 21.1l-13.1-2.3V8l35.5-4.3h.4l6 3.7v53s3-2.7 4.7-4c2-1.4 4-2.4 6-3.4a47.7 47.7 0 0 1 15.8-3.4c5.4 0 10.4 1 15.4 2.7a35.2 35.2 0 0 1 21.5 23.2 70 70 0 0 1-.3 43.6 45 45 0 0 1-10.8 17 50.9 50.9 0 0 1-17 11.5c-6.8 2.7-14.5 4-22.9 4-5.7 0-11 0-15.8-.7a225 225 0 0 1-12-2 42.5 42.5 0 0 1-12.4-4.3V21h-1Zm28.8 115.4s2 2.4 4.4 3c2.3.7 5 1.4 8 1.4s6.4-.7 9-2.4c2.8-1.7 5.1-4 7.1-7.4 2-3.3 3.7-7.3 4.7-12.4a87.6 87.6 0 0 0 .3-32.8 36 36 0 0 0-4-10.8 18 18 0 0 0-6.4-6c-2.3-1.4-5.3-2-8.3-2a13 13 0 0 0-5 .6c-1.8.4-3 1-4.4 1.7-1.4.7-2.4 1.7-3.4 2.4-1 1-2 1.6-2.7 2.7v62.3l.7-.3ZM1830.3 140.5l11.8-1.6V71.8l-10.8-3.7V54l30.2-4h.4l5.3 4v19.4a44.5 44.5 0 0 1 5.4-9 41.8 41.8 0 0 1 10.7-9.7c2.4-1.4 4.7-2.4 7.4-3.4s5.4-1.3 8.4-1.3c1.7 0 3 0 4 .3 1.4 0 2 .7 2.7 1v31.5a19.5 19.5 0 0 0-14-5c-4.8 0-9.1.7-12.5 1.7a18 18 0 0 0-8 4V139l21 1.6V152h-62v-11.4ZM1915.9 101.3c0-8.7 1.3-16.1 4.3-22.8a46.7 46.7 0 0 1 27.9-25.8 62.3 62.3 0 0 1 40.2 0 44 44 0 0 1 15.4 10 50 50 0 0 1 13.1 37c0 9-1.3 16.7-4.3 23A46.7 46.7 0 0 1 2001 139c-4.7 4.3-10 7.3-16.4 9.3a63.7 63.7 0 0 1-40.2-.3 44 44 0 0 1-15.5-10c-4-4.4-7.3-9.8-9.4-15.8a60.7 60.7 0 0 1-3.3-21.1l-.3.3Zm50.3 37.6c6 0 10.7-3 13.7-8.8 3-6 4.4-15 4.4-27.8 0-6.4 0-12-1-17.1-.7-5-1.7-9-3-12.4a20 20 0 0 0-5.8-7.7 15 15 0 0 0-8.7-2.7c-6.3 0-10.7 3-13.7 9s-4.7 15.1-4.7 27.9c0 6.3.3 12 1 17 .7 5.1 2 9.1 3.3 12.5 1.7 3.3 3.4 6 5.8 7.7a15 15 0 0 0 8.7 2.7v-.3ZM44 192.2H3.6v442.7h40.2V192.2ZM325.7 192.2h-40.3v442.7h40.3V192.2ZM587.3 192.2h-20.1v442.7h20.1V192.2ZM728.2 192.2h-40.3v442.7h40.3V192.2ZM1030.4 192.2h-80.5v442.7h80.5V192.2ZM1251.7 192.2h-60.3v442.7h60.3V192.2ZM1835 192.2h-60.3v442.7h60.3V192.2Z"
    />
    <path
      fill="#798AA8"
      d="M406.2 192.2h-40.3v442.7h40.3V192.2ZM647.7 192.2h-20.2v442.7h20.2V192.2ZM909.3 192.2H869v442.7h40.3V192.2ZM1150.8 192.2h-80.5v442.7h80.5V192.2ZM245.2 192.2h-60.4v442.7h60.4V192.2ZM1935.6 192.2h-60.3v442.7h60.3V192.2ZM1674 192.2h-60.3v442.7h60.3V192.2Z"
    />
    <path
      fill="#C2664D"
      d="M527 192.2h-80.6v442.7H527V192.2ZM828.8 192.2h-60.4v442.7h60.4V192.2ZM1332.2 192.2H1292v442.7h40.2V192.2ZM1491.3 195 1355 616.3l57.4 18.6 136.2-421.3-57.4-18.6ZM144.6 192.2H84.2v442.7h60.4V192.2ZM2016.1 192.2H1976v442.7h40.2V192.2ZM1734.4 192.2h-20.1v442.7h20.1V192.2ZM1554.4 188.6 1474.1 624l59.3 11 80.4-435.4-59.4-11Z"
    />
  </g>
  <defs>
    <clipPath id="a"><path fill="#fff" d="M1 1h2046v805H1z" /></clipPath>
  </defs>
</svg>
